<svg width="32" height="30" viewBox="0 0 32 30" fill="none" xmlns="http://www.w3.org/2000/svg">
<mask id="path-1-inside-1_407_2327" fill="white">
<path fill-rule="evenodd" clip-rule="evenodd" d="M3.55555 10.8177V27.4132C3.55555 28.4316 4.35149 29.2571 5.33332 29.2571H26.6667C27.6485 29.2571 28.4444 28.4316 28.4444 27.4132V10.8177"/>
<path fill-rule="evenodd" clip-rule="evenodd" d="M32 12.6616L16.5458 0.194209C16.2247 -0.0647364 15.7753 -0.0647364 15.4542 0.194209L0 12.6616"/>
</mask>
<path d="M16.5458 0.194209L18.4294 -2.14071L18.4291 -2.14096L16.5458 0.194209ZM15.4542 0.194209L13.5709 -2.14096L13.5706 -2.14071L15.4542 0.194209ZM3.55555 10.8177H0.555547V27.4132H3.55555H6.55555V10.8177H3.55555ZM3.55555 27.4132H0.555547C0.555547 29.9842 2.59229 32.2571 5.33332 32.2571V29.2571V26.2571C6.1107 26.2571 6.55555 26.879 6.55555 27.4132H3.55555ZM5.33332 29.2571V32.2571H26.6667V29.2571V26.2571H5.33332V29.2571ZM26.6667 29.2571V32.2571C29.4078 32.2571 31.4444 29.9842 31.4444 27.4132H28.4444H25.4444C25.4444 26.879 25.8893 26.2571 26.6667 26.2571V29.2571ZM28.4444 27.4132H31.4444V10.8177H28.4444H25.4444V27.4132H28.4444ZM32 12.6616L33.8837 10.3267L18.4294 -2.14071L16.5458 0.194209L14.6621 2.52913L30.1163 14.9965L32 12.6616ZM16.5458 0.194209L18.4291 -2.14096C17.009 -3.28635 14.991 -3.28635 13.5709 -2.14096L15.4542 0.194209L17.3376 2.52937C16.5595 3.15688 15.4405 3.15688 14.6624 2.52937L16.5458 0.194209ZM15.4542 0.194209L13.5706 -2.14071L-1.88365 10.3267L0 12.6616L1.88365 14.9965L17.3379 2.52913L15.4542 0.194209Z" fill="#FFFCE5" mask="url(#path-1-inside-1_407_2327)"/>
</svg>
